<?xml version="1.0" encoding="UTF-8"?>
<svg id="Layer_1" data-name="Layer 1" xmlns="http://www.w3.org/2000/svg" width="200" height="144.12" viewBox="0 0 200 144.12">
  <defs>
    <style>
      .cls-1 {
        fill: #8cac9f;
      }

      .cls-2 {
        fill: #81913f;
      }
    </style>
  </defs>
  <path class="cls-2" d="m180.98,118.22c3.19,0,5.51-1.88,6.95-3.54v-.26c-.96.87-1.97,1.53-3.19,1.53-2.06,0-2.75-1.84-2.75-4.24,0-2.71,1.49-4.76,4.63-4.76h1.31v-.26h-4.72c-4.9,0-8.35,2.14-8.39,5.95-.04,3.5,2.45,5.6,6.16,5.6m13.33,0c2.62,0,4.98-1.14,5.68-3.54h-.26c-.7,1.31-1.44,1.97-2.1,1.97-.79,0-1.22-.52-1.22-1.79v-10.62c0-5.73-2.89-8.48-10.14-8.74v.26c2.14.31,2.97,2.01,2.97,4.15v13.38c0,3.72,1.57,4.94,5.07,4.94m-13.95-14.51c1.75,0,3.54-.87,4.2-2.1-1.75-.13-2.84-1.09-2.84-2.67s1.05-2.93,2.8-3.19v-.26c-5.95.26-7.96,2.54-7.96,4.76,0,1.84,1.4,3.45,3.8,3.45m-11.19-8.22c-3.67,1.27-6.38,1.7-10.32,1.7v.26c2.36,0,3.1.74,3.1,2.32v14.16c0,2.54,1.75,4.28,4.81,4.28,2.89,0,5.25-1.14,5.95-3.54h-.26c-.7,1.31-1.44,1.97-2.1,1.97-.79,0-1.18-.52-1.18-1.79v-19.37Zm-14.56,0c-3.1,1.27-6.38,1.7-10.45,1.7v.26c2.49,0,3.24.74,3.24,2.32v12.28c0,4.33,2.54,6.16,6.47,6.16,3.54,0,5.77-1.66,6.78-3.54v-.26c-.96,1.01-1.88,1.36-3.02,1.36-2.19,0-3.02-1.27-3.02-3.72v-16.57Zm-21.64,0c-3.19,0-5.38,1.66-6.38,3.5v.26c.57-.7,1.66-1.31,2.89-1.31,2.1,0,3.06,1.27,3.06,3.72v13.64c0,1.09-.7,2.23-3.28,2.23v.26h13.77v-.26c-2.62,0-3.28-1.14-3.28-2.23v-13.64c0-4.33-2.62-6.16-6.78-6.16m-14.47,0c-3.19,0-5.38,1.66-6.38,3.5v.26c.57-.7,1.66-1.31,2.89-1.31,2.1,0,3.06,1.27,3.06,3.72v13.64c0,1.09-.7,2.23-3.28,2.23v.26h13.73v-.26c-2.62,0-3.24-1.14-3.24-2.23v-13.64c0-4.33-2.62-6.16-6.78-6.16m-7.74,0c-3.1,1.27-6.38,1.7-10.45,1.7v.26c2.49,0,3.24.74,3.24,2.32v15.52c0,1.09-.66,2.23-3.28,2.23v.26h13.77v-.26c-2.62,0-3.28-1.14-3.28-2.23v-19.8Zm-24.22,0v.26c2.54.26,3.41,2.45,3.41,11.02s-.83,10.93-3.41,11.19v.26c5.03,0,10.84-4.15,10.84-11.45s-5.77-11.28-10.84-11.28m-1.75,0c-5.11.04-10.89,3.93-10.89,11.28s5.86,11.45,10.89,11.45v-.26c-2.58-.26-3.45-2.97-3.45-11.19s.87-10.71,3.45-11.02v-.26Zm-27.24-7.87c2.49,0,3.24.74,3.24,2.32v25.36c0,1.09-.66,2.23-3.28,2.23v.26h13.77v-.26c-2.62,0-3.28-1.14-3.28-2.23v-29.64c-3.1,1.27-6.38,1.7-10.45,1.7v.26Zm-13.51,7.87v.26c2.53.26,3.41,2.45,3.41,11.02s-.83,10.93-3.41,11.19v.26c5.03,0,10.84-4.15,10.84-11.45s-5.77-11.28-10.84-11.28m-1.75,0c-5.11.04-10.89,3.93-10.89,11.28s5.86,11.45,10.89,11.45v-.26c-2.58-.26-3.45-2.97-3.45-11.19s.87-10.71,3.45-11.02v-.26Zm-23.26,0c-3.24,0-6.08,1.7-7.26,3.54v.26c1.05-.96,2.1-1.36,3.32-1.36,2.19,0,3.45,1.27,3.45,3.72v13.64c0,1.09-.66,2.23-3.23,2.23v.26h13.73v-.26c-2.62,0-3.28-1.14-3.28-2.23v-13.64c0-4.33-2.8-6.16-6.73-6.16m-8.57-9.84c-3.1,1.27-6.38,1.7-10.45,1.7v.26c2.49,0,3.24.74,3.24,2.32v25.36c0,1.09-.66,2.23-3.28,2.23v.26h13.77v-.26c-2.62,0-3.28-1.14-3.28-2.23v-29.64Z"/>
  <path class="cls-2" d="m161.34,143.98h4.03v-2.62h-.11c-.76,1.78-1.77,2.39-3.92,2.53v.08Zm.78-4.87c.83.07,1.4.38,1.87,1.19h.11v-2.63h-.11c-.47.81-1.03,1.15-1.87,1.22l-.78.07v.08l.78.07Zm-.78-4.75v.08c2.15.14,3.01.75,3.62,2.53h.11v-2.62h-3.73Zm-.71,9.62v-9.62h-3.47v.08c.85,0,1.06.34,1.06.74v7.99c0,.4-.21.72-1.06.72v.08h3.47Zm-11.47-3.92l1.92-4.07c.45-.96.85-1.57,1.5-1.57v-.06h-4.07v.08c.75,0,1.61.51,1.61,1.54,0,.89-.18,2.05-1,3.95l.04.13Zm-2.02,4.06h.16l1.29-2.89-2.67-5.63c-.35-.74.23-1.16.88-1.16v-.08h-5.11v.08c.69,0,1.02.18,1.27.74l4.19,8.94Zm-14.43-.14h4.53v-.08c-.85,0-1.06-.34-1.06-.72v-8.01c0-.38.21-.72,1.06-.72v-.08h-4.53v.08c.85,0,1.06.34,1.06.72v8.01c0,.38-.21.72-1.06.72v.08Zm-7.69-9.62v.08c1.09.27,1.94,1.53,2.29,3.06h.11v-3.14h-2.4Zm-.71,8.78v-8.78h-2.4v8.78c0,.38-.21.75-1.06.75v.08h4.53v-.08c-.85,0-1.06-.37-1.06-.75m-3.11-8.78h-2.4v3.14h.11c.35-1.53,1.2-2.79,2.29-3.06v-.08Zm-7.82-.14l-.42.65c-.58-.38-1.33-.59-2.56-.65v.09c1.39.38,2.43,1.47,2.98,3.35h.11v-3.44h-.11Zm-2.7,9.33c-1.6,0-3.06-.86-3.06-4.47s1.07-4.57,2.06-4.78v-.09c-2.04.06-4.84,1.39-4.84,4.96,0,3.3,2.87,4.94,5.18,4.94,1.37,0,2.67-.54,3.41-1.71l-.06-.11c-.49.61-1.41,1.26-2.7,1.26m-15.49.42h4.03v-2.62h-.11c-.76,1.78-1.77,2.39-3.92,2.53v.08Zm.78-4.87c.83.07,1.4.38,1.87,1.19h.11v-2.63h-.11c-.47.81-1.03,1.15-1.87,1.22l-.78.07v.08l.78.07Zm-.78-4.75v.08c2.15.14,3.01.75,3.62,2.53h.11v-2.62h-3.73Zm-.71,9.62v-9.62h-3.47v.08c.85,0,1.06.34,1.06.74v7.99c0,.4-.21.72-1.06.72v.08h3.47Zm-12.56,0h3.88v-2.97h-.11c-.69,2.14-1.77,2.74-3.76,2.89v.08Zm-.71,0v-8.81c0-.38.21-.72,1.06-.72v-.08h-4.53v.08c.85,0,1.06.34,1.06.72v8.01c0,.38-.21.72-1.06.72v.08h3.47Zm-12.56,0h3.88v-2.97h-.11c-.69,2.14-1.77,2.74-3.76,2.89v.08Zm-.71,0v-8.81c0-.38.21-.72,1.06-.72v-.08h-4.53v.08c.85,0,1.06.34,1.06.72v8.01c0,.38-.21.72-1.06.72v.08h3.47Zm-13.68.14c2.05,0,4.75-1.78,4.75-5.04s-2.67-4.85-4.75-4.87v.09c1.05.11,1.98,1.09,1.98,4.78s-.93,4.82-1.98,4.95v.09Zm-.71,0v-.09c-1.05-.13-1.98-1.33-1.98-4.95s.93-4.67,1.98-4.78v-.09c-2.08.01-4.75,1.68-4.75,4.87s2.7,5.04,4.75,5.04m-10.41-9.9l-.42.65c-.58-.38-1.33-.59-2.56-.65v.09c1.39.38,2.43,1.47,2.98,3.35h.11v-3.44h-.11Zm-2.7,9.33c-1.6,0-3.06-.86-3.06-4.47s1.07-4.57,2.06-4.78v-.09c-2.04.06-4.84,1.39-4.84,4.96,0,3.3,2.87,4.94,5.18,4.94,1.37,0,2.67-.54,3.41-1.71l-.06-.11c-.49.61-1.41,1.26-2.7,1.26"/>
  <path class="cls-1" d="m86.74,54.11l-11.99,5.79,15.37,7.42v-14.85l-3.38,1.63Zm36.22,0l-11.99,5.79,15.37,7.42v-14.85l-3.38,1.63Zm-36.22-17.49l-11.99,5.79,15.37,7.42v-14.85l-3.38,1.63Zm36.22,0l-11.99,5.79,15.37,7.42v-14.85l-3.38,1.63Zm-30.1-2.95l15.37,7.42h0v-14.85l-15.37,7.42Zm-10.42-12.46l-7.68,3.71,15.37,7.42v-14.85l-7.68,3.71Zm36.22,0l-7.68,3.71,15.37,7.42v-14.85l-7.68,3.71ZM90.11,0l-15.37,7.42,15.37,7.42V0Zm36.22,0l-15.37,7.42,15.37,7.42V0Z"/>
  <path class="cls-2" d="m91.78,34.99v14.85l15.37-7.42-15.37-7.42Zm-18.11-11.39l7.68-3.71,7.68-3.71-15.37-7.42v14.85Zm15.37,10.07l-15.37-7.42v14.85l15.37-7.42Zm-15.37,24.92l15.37-7.42-15.37-7.42v14.85Zm36.22-34.99l7.68-3.71,7.68-3.71-15.37-7.42v14.85Zm15.37,10.07l-15.37-7.42v14.85l15.37-7.42Zm-15.37,24.92l15.37-7.42-15.37-7.42h0v14.85Z"/>
</svg>